<?xml version="1.0" encoding="UTF-8" standalone="no"?>
<!DOCTYPE svg PUBLIC "-//W3C//DTD SVG 1.1//EN" "http://www.w3.org/Graphics/SVG/1.1/DTD/svg11.dtd">
<svg version="1.1" xmlns="http://www.w3.org/2000/svg" xmlns:xlink="http://www.w3.org/1999/xlink" preserveAspectRatio="xMidYMid meet" viewBox="4.000000000000002 11.775547445255484 634 327.01000000000005" width="630" height="323.01"><defs><path d="M8.37 307.84L48.99 307.84L75.63 297.16L108.92 276.52L143.55 273.53L155.54 263.87L180.18 276.52L212.85 297.16L206.15 311.15L243.44 332.46L257.42 311.15L302.64 335.79L371.29 319.8L383.95 327.79L451.87 281.18L554.68 253.21L578 253.21L581.06 258.54L590.38 256.54L607.03 262.53L635 245.6L616.35 239.89L597.04 239.89L620.35 181.96L613.69 171.97L616.35 156.65L601.04 138.67L578 132.68L567.08 134.01L549.76 150.66L519.13 148L462.53 88.09L439.22 105.38L413.91 98.05L365.97 34.79L320.68 12.78L295.38 17.48L238.11 50.77L227.46 64.76L189.5 61.43L165.53 44.1L141.55 54.77L122.91 71.74L95.6 83.4L5 287.84L8.37 307.84Z" id="a7gyRzBhcs"></path></defs><g><g><g><use xlink:href="#a7gyRzBhcs" opacity="1" fill-opacity="0" stroke="#000000" stroke-width="1" stroke-opacity="1"></use></g></g></g></svg>